<svg xmlns="http://www.w3.org/2000/svg" width="96" height="23" viewBox="0 0 96 23" fill="none"><path d="M4.729 4.184V9.784H13.721V13.752H4.729V23H0.281V0.216H15.289V4.184H4.729ZM23.1698 0.183998L14.8818 23H19.5218L20.8978 18.968H26.2098L24.9618 15.224H22.1458L25.0258 6.904L28.9938 18.968H29.0258L30.3698 23H35.0098L26.6898 0.183998H23.1698ZM42.104 4.184H46.456C47.3733 4.184 48.0987 4.42933 48.632 4.92C49.144 5.38933 49.4 6.01867 49.4 6.808C49.4 7.59733 49.144 8.22667 48.632 8.696C48.0987 9.18667 47.3733 9.432 46.456 9.432H44.824V13.432H46.744C47.704 13.432 48.4507 13.6987 48.984 14.232C49.4747 14.744 49.72 15.4053 49.72 16.216C49.72 17.0267 49.4747 17.688 48.984 18.2C48.4507 18.7547 47.704 19.032 46.744 19.032H44.856V23H47.192C49.2827 23 50.9573 22.4347 52.216 21.304C53.5173 20.1307 54.168 18.5093 54.168 16.44C54.168 14.008 53.1227 12.3013 51.032 11.32C51.736 10.9787 52.344 10.4453 52.856 9.72C53.5173 8.80267 53.848 7.768 53.848 6.616C53.848 4.65333 53.2293 3.096 51.992 1.944C50.7333 0.791999 49.0053 0.216 46.808 0.216H37.656V23H42.104V4.184ZM58.7185 23V0.216H73.7265V4.184H63.1665V9.528H72.1585V13.496H63.1665V19.032H73.7265V23H58.7185ZM82.5415 4.184H86.7335C87.6935 4.184 88.4722 4.46133 89.0695 5.016C89.6668 5.57067 89.9655 6.296 89.9655 7.192C89.9655 8.088 89.6668 8.81333 89.0695 9.368C88.4722 9.92267 87.6935 10.2 86.7335 10.2H86.5735V15.576L90.1895 23H95.3415L90.2535 13.176C91.4482 12.7493 92.4188 12.056 93.1655 11.096C93.9975 10.008 94.4135 8.70667 94.4135 7.192C94.4135 5.208 93.7628 3.56533 92.4615 2.264C91.0962 0.898666 89.2828 0.216 87.0215 0.216H78.0935V23H82.5415V4.184Z" fill="#333333"></path></svg>